<svg width="31" height="25" viewBox="0 0 31 25" fill="none" xmlns="http://www.w3.org/2000/svg">
<path d="M30.5239 2.91936C29.4106 3.41269 28.2146 3.74602 26.9573 3.89669C28.2546 3.12041 29.2252 1.89865 29.6879 0.459358C28.4691 1.18334 27.1351 1.69295 25.7439 1.96602C24.8084 0.967178 23.5693 0.305126 22.219 0.0826565C20.8687 -0.139813 19.4827 0.0897465 18.2763 0.735695C17.0698 1.38164 16.1103 2.40784 15.5468 3.65496C14.9833 4.90209 14.8473 6.30036 15.1599 7.63269C12.6902 7.50869 10.2741 6.86676 8.0685 5.74856C5.8629 4.63037 3.91706 3.06091 2.35727 1.14202C1.82393 2.06202 1.51727 3.12869 1.51727 4.26469C1.51667 5.28735 1.76851 6.29435 2.25044 7.19633C2.73237 8.09832 3.42948 8.86741 4.27993 9.43536C3.29364 9.40397 2.3291 9.13747 1.4666 8.65802V8.73802C1.4665 10.1723 1.96264 11.5625 2.87084 12.6727C3.77905 13.7828 5.04336 14.5446 6.44927 14.8287C5.53431 15.0763 4.57505 15.1128 3.64393 14.9354C4.0406 16.1695 4.81326 17.2487 5.85376 18.0219C6.89425 18.7951 8.15049 19.2236 9.4466 19.2474C7.24638 20.9746 4.52912 21.9115 1.73193 21.9074C1.23644 21.9075 0.741369 21.8786 0.249268 21.8207C3.08857 23.6463 6.39372 24.6151 9.76927 24.6114C21.1959 24.6114 27.4426 15.1474 27.4426 6.93936C27.4426 6.67269 27.4359 6.40336 27.4239 6.13669C28.639 5.25799 29.6878 4.16989 30.5213 2.92336L30.5239 2.91936Z" fill="white"/>
</svg>
